<svg width="102" height="205" viewBox="0 0 102 205" fill="none" xmlns="http://www.w3.org/2000/svg">
<g clip-path="url(#clip0_136_1045)">
<path fill-rule="evenodd" clip-rule="evenodd" d="M99.0875 175.022L99.1838 168.605C99.1838 168.605 98.4885 168.575 97.1854 168.518C95.8851 168.424 93.9565 168.496 91.5444 168.098C86.7124 167.573 79.745 166.211 72.0807 162.572C64.4805 158.94 56.0141 153.251 49.1405 144.847C47.3245 142.838 45.8239 140.512 44.1829 138.246C42.7704 135.827 41.2037 133.449 40.0279 130.818C38.6676 128.281 37.7214 125.522 36.6361 122.81C35.8104 120.004 34.8332 117.22 34.3477 114.302C34.0633 112.856 33.7124 111.418 33.4799 109.962L33.0078 105.563L32.7699 103.366L32.7446 101.162C32.7287 99.6925 32.7132 98.2276 32.6973 96.768C33.0392 90.953 33.7279 85.1933 35.335 79.8559C38.291 69.1028 43.524 59.8721 49.2005 53.0845C54.8676 46.2265 60.893 41.8731 65.1378 39.017C67.3524 37.719 69.0921 36.6989 70.2786 36.0035C71.5242 35.4303 72.1889 35.1249 72.1889 35.1249L72.1546 35.0449C72.1546 35.0449 71.4789 35.3287 70.2121 35.8608C69.0003 36.5181 67.2231 37.4816 64.9607 38.7083C60.6098 41.4299 54.3952 45.6074 48.4253 52.3691C42.4506 59.0607 36.8018 68.2836 33.4081 79.2475C31.5839 84.6886 30.6757 90.6065 30.1351 96.6351C30.1028 98.1509 30.0706 99.6724 30.038 101.199L29.9951 103.494L30.1673 105.788L30.5174 110.395C30.7116 111.922 31.0266 113.434 31.2771 114.957C31.6957 118.027 32.6169 120.976 33.3987 123.954C34.4403 126.84 35.3554 129.78 36.6998 132.504C37.8589 135.321 39.4236 137.892 40.8479 140.505C42.5007 142.964 44.0279 145.486 45.8839 147.688C52.9149 156.869 61.7743 163.295 69.8571 167.486C78.0008 171.69 85.5243 173.437 90.7675 174.191C93.3865 174.705 95.4857 174.712 96.9047 174.859C98.3282 174.965 99.0875 175.022 99.0875 175.022ZM43.9687 151.025C41.69 151.681 39.1808 152.036 36.2118 151.756C34.7802 151.572 33.2449 151.218 31.5733 150.645C29.9168 150.062 28.0473 149.312 26.2293 148.139C27.8136 149.69 29.5761 150.767 31.1473 151.667C32.7577 152.539 34.2236 153.209 35.7736 153.546C38.81 154.271 41.5224 154.202 44.0622 153.653C42.7109 157.353 40.8883 159.112 38.5358 159.393C36.2175 159.668 33.5488 158.362 30.6838 156.428C25.1432 152.382 19.7804 145.241 15.5976 142.749C21.2113 140.736 26.5794 140.948 31.4774 142.345C33.8842 143.084 36.0751 144.205 38.2139 145.598C39.2641 146.308 40.2257 147.142 41.1715 148.053C42.1637 148.926 43.096 149.911 43.9687 151.025ZM33.3269 132.228C31.0702 132.231 28.7993 131.874 26.3178 130.833C25.0722 130.315 23.7703 129.625 22.3994 128.711C21.0269 127.798 19.7482 126.605 18.3243 125.153C20.4859 128.643 23.0522 130.864 25.4614 132.322C27.8266 133.802 30.4137 134.366 32.7932 134.553C30.6035 137.476 28.5422 138.531 26.43 138.143C24.3439 137.76 22.1207 136.021 20.2558 133.518C16.1647 128.637 13.4544 121.004 10.2002 117.872C15.6817 117.465 20.4516 118.94 24.3851 121.404C26.4019 122.635 28.0845 124.174 29.5541 125.972C31.1506 127.726 32.2567 129.856 33.3269 132.228ZM28.4623 113.264C24.4484 112.157 20.5716 109.899 16.6115 103.557C17.9179 107.076 19.6201 109.625 21.3859 111.473C23.2333 113.311 25.3713 114.428 27.4476 115.159C24.829 117.199 22.7523 117.621 20.9661 116.779C20.0746 116.364 19.259 115.645 18.4997 114.705C17.736 113.767 17.0142 112.612 16.4977 111.298C15.9408 109.992 15.4303 108.555 14.9391 107.085C14.4556 105.613 13.9326 104.111 13.6119 102.652C12.8689 99.7409 12.0607 97.0509 10.8461 95.3084C15.8029 96.1837 19.9551 98.5556 22.8674 101.633C23.6112 102.406 24.2085 103.233 24.8441 104.101C25.4871 104.969 26.0502 105.885 26.5251 106.851C27.5137 108.777 27.958 110.928 28.4623 113.264ZM28.1012 95.3625C26.512 94.447 24.962 93.2567 23.4896 91.5106C22.022 89.7627 20.5552 87.447 19.6123 84.3085C19.9004 87.6295 21.0563 90.2342 22.2994 92.2387C23.601 94.2502 25.0237 95.6852 26.8127 96.8102C21.4377 99.312 18.9061 96.137 17.964 91.0218C17.6996 89.759 17.4993 88.3946 17.3218 87.0055C17.2529 85.6189 17.1839 84.2249 17.1174 82.8846C16.9624 80.1823 16.6739 77.6571 16.0672 75.9322C18.1819 76.8104 20.0212 77.9851 21.5634 79.3377C23.1668 80.7091 24.5128 82.2687 25.5385 83.9399C26.5904 85.6176 27.224 87.3913 27.6846 89.2925C28.1918 91.2039 28.3505 93.2145 28.1012 95.3625ZM31.4472 79.2934C29.0188 77.0138 26.5716 73.7883 25.9437 67.9261C25.8303 69.4173 25.8466 70.7646 25.9718 71.9835C26.1187 73.211 26.4708 74.348 26.8446 75.3516C27.6198 77.3697 28.7128 78.9441 29.9853 80.2548C24.6112 81.2626 23.3276 78.0531 23.2533 73.3783C23.126 71.036 23.707 68.5612 23.9682 66.159C24.124 64.968 24.2325 63.8052 24.2807 62.7433C24.3794 61.7064 24.3806 60.7511 24.2211 59.9274C27.6875 62.2944 29.8805 65.3747 31.2073 68.7392C31.8372 70.4128 32.1706 72.1311 32.1645 73.867C32.1559 75.6042 32.0576 77.4541 31.4472 79.2934ZM37.4118 65.3796C35.6406 62.92 34.1102 59.6995 34.4652 54.4658C33.0494 59.5133 34.2489 63.2247 35.9809 65.9909C31.1281 65.8347 30.5345 62.7778 31.2102 58.7188C31.5202 56.6983 32.4019 54.6511 33.0058 52.6237C33.3244 51.62 33.6084 50.6422 33.801 49.7242C34.0245 48.83 34.1886 48.0182 34.1702 47.2761C36.8255 49.9308 38.3151 53.0107 38.9422 56.1677C39.5285 59.3165 38.9303 62.3087 37.4118 65.3796ZM45.2747 53.8106C44.1433 51.4052 43.2657 48.3048 44.3767 43.9354C43.9006 44.9674 43.5542 45.9362 43.3188 46.848C43.0919 47.7681 43.0442 48.6951 43.0401 49.5319C43.0519 51.2235 43.4049 52.7061 43.9508 54.0669C39.7871 53.0784 39.7594 50.3437 40.9544 46.9956C41.4889 45.2867 42.5709 43.707 43.3885 42.0781C44.2413 40.482 44.9292 38.9199 45.0924 37.6308C47.0063 40.32 47.9838 43.3528 48.0087 46.1268C48.0214 47.5204 47.7966 48.8615 47.3127 50.1141C46.821 51.3613 46.236 52.6733 45.2747 53.8106ZM54.3841 44.5369C53.8125 42.3241 53.5416 39.5681 54.9933 35.9683C52.8562 39.2097 52.7383 42.0769 53.2234 44.5545C49.8354 42.9932 50.2303 40.6751 51.7272 38.0716C53.1291 35.3762 55.9097 33.0208 56.4715 30.8293C57.7599 33.4283 58.1712 36.0999 57.7999 38.4328C57.3711 40.7062 56.3544 42.9022 54.3841 44.5369ZM64.2863 37.4533C64.0925 35.5058 64.3149 33.3152 65.9073 30.464C63.791 32.8793 63.23 35.131 63.2875 37.2552C62.0101 36.3627 61.516 35.466 61.5348 34.5009C61.576 33.58 62.1537 32.6481 62.9468 31.7174C64.5434 29.8736 66.9346 27.9437 67.7135 26.3857C68.4952 28.7457 68.4471 30.8679 67.9004 32.8678C67.3275 34.8305 66.1492 36.434 64.2863 37.4533ZM61.3332 167.563C57.0133 170.429 51.3115 172.612 42.0434 170.45C43.1466 170.959 44.2082 171.392 45.229 171.755C46.2633 172.101 47.3004 172.321 48.2715 172.513C50.2295 172.877 52.0075 173.024 53.671 172.933C57.0643 172.65 59.8607 171.636 62.2936 170.219C62.1076 174.508 60.8285 176.914 58.4756 178.017C56.2063 179.015 52.926 178.691 49.3653 177.565C47.6175 176.955 45.7815 176.177 43.93 175.341C42.0923 174.487 40.3408 173.44 38.5762 172.524C36.7961 171.622 35.1604 170.666 33.6186 169.884C32.0674 169.114 30.5998 168.53 29.2624 168.267C34.4436 164.402 40.1857 162.81 45.5954 162.773C51.1116 162.692 56.1887 164.336 61.3332 167.563ZM72.9363 34.9888C74.6879 33.9174 76.765 32.9662 79.7956 33.2742C78.4512 32.874 77.1489 32.6792 75.9992 32.8904C74.849 33.1032 73.7837 33.5275 72.7915 34.0712C73.7189 30.9581 75.7682 30.5005 77.9331 31.193C80.0947 31.7912 82.2477 33.138 83.8985 32.9462C82.0008 34.7104 80.0726 35.7428 78.1807 36.0224C76.328 36.3992 74.5475 36.1614 72.9363 34.9888ZM52.4967 143.33C53.5661 141.182 54.5245 138.904 55.2667 136.43C56.1602 133.845 56.7 131.157 57.2916 128.053C57.3095 129.534 57.4384 130.826 57.3405 132.181C57.2818 133.508 57.0447 134.874 56.8758 136.103C56.4723 138.611 55.6832 141.096 54.7167 143.526C58.2385 142.093 59.8974 140.154 60.6547 138.194C61.4181 136.202 61.3854 134.025 60.9762 131.966C60.4062 127.657 58.9007 123.171 60.8518 120.06C55.7611 122.942 51.828 126.661 50.3209 130.82C49.5139 132.914 49.1993 135.154 49.615 137.267C49.8023 138.335 50.0948 139.424 50.5636 140.453C51.0793 141.445 51.7268 142.412 52.4967 143.33ZM41.9597 128.111C43.3812 126.502 44.8357 124.703 46.1748 122.637C46.8394 121.607 47.4718 120.514 48.0626 119.351C48.6509 118.189 49.3588 116.897 49.9443 115.56C49.3841 118.284 48.728 120.614 47.6697 122.818C46.5636 125.044 45.4232 126.978 43.9532 128.887C47.3992 128.617 49.367 127.351 50.5587 125.775C51.7603 124.176 52.0512 122.281 52.3543 120.196C52.4792 119.165 52.4963 118.132 52.551 117.097C52.6701 116.061 52.7901 115.02 52.9051 114.02C52.9725 113.53 53.0484 113.056 53.1402 112.602C53.2744 112.136 53.4368 111.688 53.6118 111.268C53.9655 110.427 54.4017 109.692 54.9741 109.102C49.7599 110.427 45.4237 112.818 43.0156 116.218C41.8585 117.892 41.0548 119.835 40.8337 121.88C40.737 123.871 40.9471 126.081 41.9597 128.111ZM36.3534 111.83C39.5546 109.645 43.0144 106.73 46.1328 102.381C45.1854 104.723 44.0087 106.703 42.5322 108.451C41.1343 110.191 39.6582 111.666 37.9271 113.011C41.0548 113.635 43.0927 113.002 44.5044 111.869C45.2086 111.297 45.7533 110.589 46.1838 109.799C46.6093 109.011 46.9059 108.141 47.3021 107.218C47.657 106.299 47.9508 105.346 48.2225 104.404C48.502 103.462 48.7011 102.533 49.1365 101.66C49.9068 99.9156 50.7391 98.424 51.9676 97.5945C47.0059 97.6138 42.828 98.804 39.8822 101.326C39.1625 101.951 38.4522 102.656 37.9515 103.426C37.4583 104.196 37.056 105.034 36.752 105.929C36.1816 107.715 35.8153 109.761 36.3534 111.83ZM34.8328 95.8221C36.5762 95.212 38.3314 94.4482 40.0886 93.4142C41.8483 92.3826 43.5391 91.0694 45.562 89.4716C44.0491 91.3798 42.7517 92.9349 41.1303 94.1879C39.5656 95.4457 37.7096 96.415 35.9948 97.2436C41.3955 99.697 43.5881 97.1161 45.5869 94.1407C46.0565 93.3777 46.4775 92.5659 46.8786 91.7578C47.3755 90.9812 47.8753 90.201 48.3564 89.4499C49.3368 87.9936 50.3033 86.766 51.7179 86.2847C49.489 85.7882 47.3608 85.5783 45.3755 85.7045C43.4522 85.8448 41.71 86.3314 40.1821 87.1584C38.681 87.9878 37.2967 89.1432 36.3958 90.618C35.5419 92.0985 34.9988 93.8701 34.8328 95.8221ZM36.9197 80.9703C40.2376 80.5996 43.4306 79.5533 47.5783 77.3725C46.7831 78.1187 45.9618 78.7559 45.1201 79.3044C44.2996 79.8604 43.5566 80.3635 42.7304 80.7681C41.1066 81.5886 39.3901 82.1052 37.6268 82.4434C41.7419 85.7132 44.5097 83.9637 46.6848 81.5959C47.6934 80.3528 48.9867 79.0375 50.0667 77.8633C50.6322 77.2864 51.1773 76.7555 51.7599 76.3496C52.3931 75.9683 53.0255 75.6948 53.6677 75.5825C49.9051 73.8814 46.1479 73.2803 43.2237 74.2438C41.7345 74.7047 40.3869 75.5091 39.2482 76.6259C38.1066 77.7395 37.4273 79.2593 36.9197 80.9703ZM41.6729 67.7502C44.6019 68.0278 47.6575 67.7314 51.6897 66.4641C48.2633 68.5288 45.2972 69.2976 42.0283 69.2234C45.0646 72.9011 47.7729 71.8588 50.101 70.1024C51.2556 69.1918 52.6114 68.2209 53.7787 67.3476C54.3788 66.9216 54.9672 66.5424 55.5445 66.264C56.1532 66.009 56.7816 65.8794 57.3703 65.8786C54.3046 63.7421 51.1161 62.6138 48.3755 62.9557C45.6166 63.2558 42.9948 64.8109 41.6729 67.7502ZM48.4571 56.4994C50.9782 57.2833 53.6273 57.4867 57.3846 57.0427C56.5637 57.3752 55.7616 57.615 54.9745 57.7786C54.1961 57.9496 53.5016 58.1079 52.7734 58.1599C51.3364 58.2821 49.93 58.1341 48.5375 57.8307C50.5571 61.5801 53.0704 61.141 55.4066 59.9738C56.5319 59.3264 57.9015 58.7073 59.077 58.1238C60.2871 57.5744 61.3993 57.1485 62.4299 57.3088C60.0688 54.9636 57.5702 53.6331 55.0696 53.44C53.826 53.3445 52.5947 53.5364 51.4319 54.0144C50.2625 54.4851 49.3282 55.3969 48.4571 56.4994ZM56.6849 47.3314C58.7322 48.3937 60.9942 49.0136 64.2422 49.1153C61.2239 49.8041 58.8603 49.4601 56.5396 48.4819C57.682 51.9878 59.9068 52.0288 62.1308 51.4056C64.2957 50.6618 66.9285 49.6528 68.6356 50.1457C66.9322 47.8218 64.9301 46.2732 62.793 45.7107C60.6176 45.0748 58.5029 45.6963 56.6849 47.3314ZM65.8489 40.1888C67.3953 41.3733 69.2688 42.3487 71.9502 42.7878C69.3594 43.0285 67.3373 42.2675 65.5495 41.1195C65.7706 42.696 66.3634 43.5627 67.1068 43.9842C67.8775 44.4467 68.8367 44.5114 69.8453 44.4257C71.8714 44.2769 74.0628 43.3946 75.5283 44.2015C74.4051 42.0605 72.8384 40.3553 71.1709 39.7075C69.4924 39.0154 67.6033 39.1507 65.8489 40.1888ZM68.2651 155.583C69.0721 150.504 69.1929 145.055 68.5581 138.478C68.809 139.178 69.0248 139.885 69.2109 140.598C69.41 141.294 69.6221 141.939 69.7804 142.624C70.1125 143.973 70.3153 145.375 70.4593 146.753C70.811 149.409 70.7878 152.178 70.5593 154.996C73.6438 152.327 74.714 149.744 74.8743 147.513C75.0771 145.159 74.3276 143.103 73.3737 141.107C71.439 137.133 68.9122 132.91 69.9061 129.321C65.5291 133.93 62.6861 138.873 62.2728 143.696C61.8803 148.395 63.8848 153.079 68.2651 155.583Z" fill="white"/>
</g>
<defs>
<clipPath id="clip0_136_1045">
<rect width="102" height="205" fill="white"/>
</clipPath>
</defs>
</svg>
