<svg width="102" height="205" viewBox="0 0 102 205" fill="none" xmlns="http://www.w3.org/2000/svg">
<g clip-path="url(#clip0_136_1053)">
<path fill-rule="evenodd" clip-rule="evenodd" d="M5.09508 174.859C6.5137 174.712 8.61326 174.705 11.2322 174.191C16.4754 173.437 23.9989 171.69 32.1422 167.486C40.2251 163.295 49.0844 156.869 56.1155 147.688C57.9715 145.486 59.4986 142.964 61.1518 140.505C62.5762 137.892 64.1408 135.321 65.3 132.504C66.6439 129.78 67.5595 126.839 68.6011 123.954C69.3832 120.976 70.3041 118.027 70.7227 114.957C70.9732 113.434 71.2882 111.922 71.4824 110.395L71.8329 105.788L72.005 103.494L71.9622 101.199C71.9296 99.6724 71.8973 98.1509 71.8651 96.6351C71.3249 90.6065 70.4167 84.6882 68.5921 79.2475C65.1984 68.2836 59.5496 59.0607 53.5749 52.3691C47.6054 45.6078 41.3904 41.4303 37.0394 38.7083C34.7775 37.4816 33.0002 36.5181 31.7881 35.8608C30.5212 35.3287 29.8456 35.0449 29.8456 35.0449L29.8113 35.1249C29.8113 35.1249 30.4759 35.4303 31.7216 36.0035C32.908 36.6989 34.6482 37.719 36.8624 39.017C41.1068 41.8731 47.1325 46.2265 52.7993 53.0845C58.4762 59.8725 63.7088 69.1032 66.6647 79.8559C68.2714 85.1929 68.9601 90.9525 69.3025 96.768C69.2865 98.2272 69.271 99.6925 69.2551 101.162L69.2298 103.366L68.992 105.563L68.5199 109.962C68.2874 111.418 67.9361 112.856 67.6521 114.302C67.1666 117.22 66.189 120.005 65.3636 122.81C64.2787 125.523 63.3322 128.281 61.9719 130.818C60.7965 133.449 59.2293 135.827 57.8173 138.246C56.1763 140.512 54.6757 142.838 52.8596 144.847C45.9865 153.251 37.5201 158.94 29.9194 162.572C22.2556 166.211 15.2877 167.573 10.4558 168.098C8.04411 168.496 6.11508 168.424 4.81478 168.518C3.51122 168.575 2.81641 168.605 2.81641 168.605L2.91269 175.022C2.91269 175.022 3.67157 174.965 5.09508 174.859ZM60.8291 148.053C61.7744 147.143 62.7365 146.308 63.7867 145.599C65.925 144.206 68.116 143.085 70.5232 142.345C75.4208 140.948 80.7893 140.736 86.403 142.75C82.2201 145.242 76.8574 152.382 71.3167 156.429C68.4514 158.362 65.7826 159.669 63.4648 159.393C61.1123 159.112 59.2893 157.353 57.9384 153.654C60.4782 154.202 63.1906 154.272 66.227 153.546C67.7769 153.209 69.2429 152.539 70.8533 151.668C72.4241 150.767 74.1866 149.69 75.7713 148.139C73.9532 149.313 72.0838 150.062 70.4273 150.646C68.7553 151.218 67.22 151.573 65.7888 151.756C62.8193 152.036 60.3101 151.681 58.0319 151.025C58.9042 149.911 59.8364 148.926 60.8291 148.053ZM72.4461 125.973C73.9157 124.174 75.5983 122.635 77.615 121.404C81.5486 118.94 86.3181 117.465 91.7996 117.873C88.5454 121.004 85.8354 128.638 81.744 133.519C79.8794 136.021 77.6558 137.761 75.5697 138.143C73.4575 138.532 71.3963 137.476 69.207 134.554C71.586 134.367 74.1736 133.802 76.5383 132.323C78.9476 130.865 81.5139 128.643 83.6755 125.154C82.2512 126.606 80.9725 127.798 79.6 128.711C78.2295 129.625 76.9276 130.315 75.6819 130.834C73.2005 131.874 70.9296 132.231 68.6729 132.229C69.7435 129.856 70.8496 127.726 72.4461 125.973ZM75.4751 106.851C75.95 105.885 76.513 104.969 77.1556 104.101C77.7917 103.233 78.3886 102.406 79.1324 101.633C82.0447 98.5556 86.1969 96.1837 91.1537 95.3084C89.9391 97.0509 89.1308 99.7409 88.3879 102.652C88.0676 104.111 87.5441 105.613 87.0607 107.085C86.5694 108.555 86.059 109.992 85.5021 111.298C84.9856 112.612 84.2638 113.767 83.5 114.705C82.7408 115.645 81.9256 116.364 81.0337 116.779C79.2479 117.621 77.1711 117.2 74.5522 115.159C76.6289 114.428 78.7664 113.311 80.6138 111.473C82.3797 109.625 84.0818 107.076 85.3883 103.557C81.4282 109.899 77.5514 112.157 73.5379 113.264C74.0422 110.928 74.4865 108.777 75.4751 106.851ZM74.316 89.2929C74.7762 87.3917 75.4098 85.618 76.4616 83.9403C77.4873 82.2692 78.8333 80.7095 80.4368 79.3381C81.9794 77.9855 83.8183 76.8108 85.9333 75.9326C85.3267 77.6571 85.0382 80.1827 84.8832 82.885C84.8167 84.2253 84.7477 85.6189 84.6787 87.0059C84.5013 88.395 84.3005 89.7594 84.0361 91.0222C83.0941 96.1374 80.562 99.3124 75.1874 96.8106C76.9761 95.6856 78.3992 94.2506 79.7007 92.2391C80.9435 90.2346 82.0994 87.6299 82.3878 84.3089C81.4449 87.4475 79.9782 89.7631 78.5106 91.511C77.0385 93.2572 75.4881 94.4474 73.8994 95.3629C73.6501 93.2145 73.8084 91.2039 74.316 89.2929ZM69.8353 73.8674C69.8292 72.1315 70.1625 70.4128 70.7925 68.7396C72.1197 65.3751 74.3123 62.2948 77.7787 59.9278C77.6195 60.7515 77.6208 61.7068 77.7191 62.7437C77.7676 63.8056 77.8758 64.968 78.0316 66.1594C78.2931 68.5616 78.8741 71.0364 78.7464 73.3787C78.6722 78.0535 77.389 81.263 72.0148 80.2552C73.2874 78.9445 74.3808 77.3697 75.156 75.352C75.5293 74.3484 75.8819 73.2114 76.0283 71.9839C76.154 70.765 76.1703 69.4177 76.0569 67.9265C75.429 73.7891 72.9818 77.0146 70.5538 79.2938C69.9426 77.4541 69.8447 75.6042 69.8353 73.8674ZM63.0584 56.1673C63.6855 53.0107 65.1755 49.9308 67.8304 47.2757C67.812 48.0178 67.976 48.8296 68.1996 49.7238C68.3922 50.6418 68.6762 51.6196 68.9944 52.6233C69.5983 54.6507 70.4795 56.6979 70.79 58.7183C71.4657 62.7773 70.872 65.8347 66.0193 65.9905C67.7508 63.2238 68.9508 59.5129 67.535 54.4654C67.8904 59.6991 66.3595 62.9196 64.5888 65.3792C63.0698 62.3087 62.4717 59.3165 63.0584 56.1673ZM54.6875 50.1141C54.2032 48.8615 53.9784 47.52 53.991 46.1268C54.0159 43.3528 54.9935 40.32 56.9074 37.6308C57.0706 38.9199 57.7585 40.482 58.6112 42.0781C59.4289 43.707 60.5113 45.2867 61.0453 46.9956C62.2404 50.3437 62.2126 53.0784 58.049 54.0669C58.5953 52.7057 58.9478 51.2235 58.9597 49.5319C58.956 48.6951 58.9082 47.7681 58.6814 46.848C58.446 45.9362 58.0996 44.9674 57.6235 43.9354C58.7344 48.3043 57.8572 51.4048 56.7258 53.8106C55.7642 52.6733 55.1791 51.3613 54.6875 50.1141ZM44.1998 38.4328C43.829 36.1003 44.2398 33.4287 45.5283 30.8293C46.0901 33.0208 48.8706 35.3762 50.2725 38.0716C51.7699 40.6751 52.1644 42.9932 48.7764 44.5545C49.2619 42.0769 49.144 39.2097 47.0069 35.9683C48.4586 39.5681 48.1872 42.3241 47.616 44.5369C45.6462 42.9022 44.6287 40.7062 44.1998 38.4328ZM34.0998 32.8678C33.5531 30.8683 33.5049 28.7457 34.2863 26.3857C35.0655 27.9437 37.4564 29.8736 39.0529 31.7174C39.8465 32.6481 40.4238 33.58 40.4654 34.5009C40.4842 35.466 39.9905 36.3627 38.7127 37.2552C38.7698 35.131 38.2092 32.8793 36.0929 30.464C37.6853 33.3152 37.9081 35.5062 37.7135 37.4533C35.8513 36.434 34.6726 34.8305 34.0998 32.8678ZM56.4056 162.773C61.8152 162.81 67.557 164.402 72.7382 168.267C71.4008 168.53 69.9332 169.114 68.382 169.884C66.8402 170.666 65.2045 171.622 63.4244 172.524C61.6598 173.44 59.9078 174.487 58.0706 175.341C56.2187 176.177 54.3827 176.955 52.6352 177.565C49.0742 178.691 45.7943 179.015 43.525 178.017C41.1721 176.915 39.8934 174.508 39.707 170.219C42.1403 171.636 44.9367 172.65 48.3296 172.933C49.993 173.024 51.7707 172.877 53.7291 172.513C54.7005 172.321 55.7373 172.101 56.7715 171.755C57.7928 171.392 58.8544 170.959 59.9572 170.45C50.6895 172.613 44.9873 170.429 40.6674 167.563C45.811 164.336 50.8886 162.692 56.4056 162.773ZM23.8198 36.022C21.9279 35.7428 19.9997 34.7104 18.1021 32.9457C19.7529 33.1376 21.9059 31.7908 24.0675 31.1926C26.2319 30.5005 28.2817 30.9577 29.2091 34.0708C28.2173 33.5271 27.1516 33.1028 26.0014 32.89C24.8517 32.6788 23.5489 32.8736 22.2046 33.2737C25.2352 32.9658 27.3127 33.917 29.0639 34.9884C27.4527 36.1614 25.6721 36.3992 23.8198 36.022ZM51.4365 140.453C51.9057 139.424 52.1983 138.334 52.3855 137.267C52.8009 135.154 52.4863 132.914 51.6797 130.82C50.1726 126.661 46.2394 122.942 41.1484 120.06C43.0995 123.171 41.594 127.657 41.024 131.966C40.6147 134.025 40.5821 136.202 41.3459 138.194C42.1035 140.154 43.7621 142.093 47.2835 143.526C46.317 141.096 45.5279 138.611 45.1244 136.103C44.9555 134.874 44.7184 133.507 44.6597 132.181C44.5617 130.826 44.6907 129.534 44.709 128.053C45.3006 131.157 45.8404 133.845 46.7339 136.43C47.4757 138.904 48.4345 141.182 49.5034 143.33C50.2733 142.412 50.9204 141.445 51.4365 140.453ZM61.1661 121.879C60.9446 119.834 60.1412 117.891 58.9837 116.218C56.5761 112.817 52.2395 110.426 47.0257 109.101C47.5985 109.692 48.0346 110.426 48.3884 111.267C48.5634 111.687 48.7258 112.136 48.86 112.601C48.9518 113.055 49.0277 113.529 49.0946 114.019C49.2097 115.02 49.3296 116.06 49.4488 117.096C49.503 118.131 49.5202 119.164 49.6454 120.195C49.949 122.28 50.2399 124.175 51.4414 125.774C52.6332 127.35 54.601 128.616 58.047 128.886C56.5769 126.977 55.4366 125.044 54.3305 122.817C53.2721 120.613 52.6161 118.284 52.0559 115.559C52.641 116.896 53.3492 118.188 53.9376 119.35C54.5284 120.514 55.1612 121.607 55.8254 122.636C57.1644 124.702 58.619 126.501 60.0404 128.11C61.0527 126.081 61.2632 123.871 61.1661 121.879ZM65.249 105.93C64.945 105.035 64.5427 104.196 64.0495 103.427C63.5488 102.657 62.8385 101.952 62.1188 101.327C59.173 98.8049 54.9951 97.6146 50.0334 97.5954C51.2615 98.4248 52.0938 99.916 52.8645 101.661C53.2999 102.534 53.4986 103.464 53.7785 104.405C54.0502 105.347 54.344 106.3 54.6989 107.218C55.0947 108.142 55.3917 109.011 55.8172 109.8C56.2477 110.589 56.7919 111.298 57.4962 111.87C58.9078 113.003 60.9458 113.636 64.0735 113.012C62.3424 111.667 60.8662 110.191 59.4684 108.452C57.9919 106.704 56.8152 104.724 55.8678 102.382C58.9862 106.731 62.446 109.646 65.6472 111.831C66.1849 109.761 65.819 107.715 65.249 105.93ZM65.6043 90.6184C64.7035 89.1436 63.3191 87.9882 61.8181 87.1588C60.2901 86.3318 58.548 85.8452 56.6247 85.705C54.6389 85.5787 52.5108 85.7886 50.2823 86.2851C51.6964 86.7669 52.663 87.9944 53.6438 89.4503C54.1244 90.201 54.6242 90.9817 55.1216 91.7582C55.5227 92.5663 55.9437 93.3777 56.4133 94.1411C58.4121 97.1165 60.6047 99.6974 66.005 97.244C64.2906 96.4154 62.4346 95.4461 60.8695 94.1883C59.2481 92.9357 57.9507 91.3806 56.4374 89.472C58.4603 91.0698 60.151 92.383 61.9107 93.4146C63.6684 94.4482 65.4232 95.212 67.167 95.8225C67.0013 93.8701 66.4579 92.0985 65.6043 90.6184ZM62.7528 76.6255C61.6137 75.5087 60.2661 74.7042 58.7769 74.2434C55.8527 73.2799 52.0955 73.881 48.3329 75.5821C48.9755 75.6948 49.6079 75.9679 50.2407 76.3492C50.8233 76.7551 51.3684 77.286 51.9339 77.8629C53.0135 79.0371 54.3072 80.3524 55.3158 81.5955C57.4909 83.9633 60.2587 85.7127 64.3734 82.443C62.61 82.1047 60.8936 81.5881 59.2697 80.7677C58.4439 80.3627 57.7006 79.86 56.8801 79.304C56.0384 78.7555 55.2171 78.1183 54.4223 77.3721C58.5696 79.5533 61.763 80.5992 65.0809 80.9699C64.5729 79.2593 63.8936 77.7395 62.7528 76.6255ZM53.625 62.9557C50.8841 62.6138 47.696 63.7421 44.6303 65.8786C45.219 65.8794 45.8478 66.009 46.4561 66.264C47.0338 66.5424 47.6217 66.9216 48.2219 67.3476C49.3892 68.2209 50.745 69.1918 51.8996 70.1024C54.2277 71.8588 56.936 72.9015 59.9719 69.2234C56.7034 69.2972 53.7368 68.5288 50.3105 66.4641C54.3427 67.731 57.3982 68.0278 60.3273 67.7502C59.0053 64.8109 56.3839 63.2558 53.625 62.9557ZM50.5683 54.014C49.4055 53.5359 48.1742 53.3437 46.9306 53.4396C44.4304 53.6323 41.9322 54.9632 39.5707 57.3083C40.6009 57.148 41.7131 57.574 42.9236 58.1234C44.0991 58.7069 45.4687 59.326 46.594 59.9734C48.9302 61.1406 51.4435 61.5797 53.4631 57.8303C52.071 58.1341 50.6642 58.2817 49.2272 58.1595C48.4993 58.1074 47.8045 57.9492 47.0261 57.7782C46.239 57.615 45.4369 57.3752 44.6156 57.0423C48.3729 57.4863 51.0224 57.2829 53.543 56.499C52.672 55.3969 51.7376 54.4851 50.5683 54.014ZM39.2071 45.7107C37.0705 46.2736 35.0684 47.8222 33.3646 50.1457C35.0717 49.6528 37.7045 50.6618 39.8693 51.4056C42.0933 52.0284 44.3182 51.9874 45.4602 48.4819C43.1395 49.4601 40.7763 49.8041 37.7575 49.1153C41.006 49.0136 43.2684 48.3941 45.3149 47.3314C43.4973 45.6963 41.3822 45.0748 39.2071 45.7107ZM30.8289 39.7075C29.1614 40.3553 27.5951 42.0605 26.4714 44.2015C27.9366 43.395 30.1283 44.2769 32.1545 44.4257C33.1634 44.5114 34.1222 44.4467 34.893 43.9842C35.6363 43.5627 36.2296 42.696 36.4503 41.1195C34.6628 42.2671 32.6404 43.0285 30.0496 42.7878C32.7318 42.3487 34.6049 41.3733 36.1512 40.1888C34.3968 39.1507 32.5082 39.0154 30.8289 39.7075ZM39.7269 143.696C39.314 138.874 36.4711 133.93 32.0937 129.321C33.088 132.91 30.5612 137.132 28.6261 141.107C27.6718 143.104 26.9227 145.16 27.1255 147.513C27.2858 149.743 28.356 152.327 31.4405 154.996C31.2124 152.178 31.1887 149.409 31.5404 146.753C31.6848 145.375 31.8876 143.973 32.2197 142.624C32.378 141.939 32.5898 141.294 32.7889 140.598C32.9749 139.885 33.1908 139.178 33.4417 138.478C32.8073 145.055 32.928 150.504 33.735 155.583C38.1153 153.079 40.1198 148.395 39.7269 143.696Z" fill="white"/>
</g>
<defs>
<clipPath id="clip0_136_1053">
<rect width="102" height="205" fill="white"/>
</clipPath>
</defs>
</svg>
