<svg width="1500" height="579" viewBox="0 0 1500 579" fill="none" xmlns="http://www.w3.org/2000/svg">
<path d="M-131 -607L2792.92 -607M-131 -515.633H2792.92M-131 -424.266H2792.92M-131 -332.899H2792.92M-131 -241.532H2792.92M-131 -150.165H2792.92M-131 -58.7982H2792.92M-131 32.5688H2792.92M-131 123.936H2792.92M-131 215.303H2792.92M-131 306.67H2792.92M-131 398.037H2792.92M-131 489.404H2792.92M-131 580.771H2792.92M-131 672.138H2792.92M-131 763.504H2792.92M-131 854.871H2792.92M-131 946.238H2792.92M2794 -606.239V947M2702.63 -606.239L2702.63 947M2611.25 -606.239L2611.25 947M2519.88 -606.239V947M2428.51 -606.239V947M2337.14 -606.239V947M2245.76 -606.239V947M2154.39 -606.239V947M2063.02 -606.239V947M1971.65 -606.239V947M1880.27 -606.239V947M1788.9 -606.239V947M1697.53 -606.239V947M1606.16 -606.239L1606.16 947M1514.78 -606.239L1514.78 947M1423.41 -606.239L1423.41 947M1332.04 -606.239L1332.04 947M1240.67 -606.239L1240.67 947M1149.29 -606.239L1149.29 947M1057.92 -606.239L1057.92 947M966.548 -606.239L966.548 947M875.176 -606.239L875.176 947M783.804 -606.239L783.804 947M692.431 -606.239L692.431 947M601.059 -606.239L601.059 947M509.686 -606.239L509.686 947M418.313 -606.239L418.313 947M326.941 -606.239L326.941 947M235.568 -606.239L235.568 947M144.196 -606.239L144.196 947M52.8233 -606.239L52.8232 947M-38.5493 -606.239L-38.5493 947M-129.922 -606.239L-129.922 947" stroke="url(#paint0_radial_136_1108)" stroke-opacity="0.5" stroke-width="2.04046"/>
<defs>
<radialGradient id="paint0_radial_136_1108" cx="0" cy="0" r="1" gradientTransform="matrix(509.43 328.797 150.513 -232.994 1218.1 263.015)" gradientUnits="userSpaceOnUse">
<stop stop-color="white" stop-opacity="0.12"/>
<stop offset="1" stop-color="white" stop-opacity="0"/>
</radialGradient>
</defs>
</svg>
