<svg width="20" height="20" viewBox="0 0 20 20" fill="none" xmlns="http://www.w3.org/2000/svg">
<path fill-rule="evenodd" clip-rule="evenodd" d="M9.99935 18.3327C14.6017 18.3327 18.3327 14.6017 18.3327 9.99935C18.3327 5.39698 14.6017 1.66602 9.99935 1.66602C5.39698 1.66602 1.66602 5.39698 1.66602 9.99935C1.66602 14.6017 5.39698 18.3327 9.99935 18.3327ZM12.9456 7.05307C13.2711 6.72763 13.7987 6.72763 14.1241 7.05307C14.4496 7.37851 14.4496 7.90614 14.1241 8.23158L9.4132 12.9425L9.41011 12.9456C9.32594 13.0298 9.22824 13.0922 9.12402 13.1328C8.97638 13.1904 8.81564 13.2043 8.66168 13.1744C8.5041 13.1439 8.35363 13.0677 8.23159 12.9456L8.22842 12.9424L5.87458 10.5886C5.54914 10.2632 5.54914 9.73553 5.87458 9.41009C6.20002 9.08466 6.72765 9.08466 7.05309 9.41009L8.82085 11.1779L12.9456 7.05307Z" fill="#222222" fill-opacity="0.2"/>
</svg>
