<svg width="60" height="60" viewBox="0 0 60 60" fill="none" xmlns="http://www.w3.org/2000/svg">
<path d="M32.0204 20.6075C32.0204 22.8075 32.5954 24.655 33.7454 26.15C34.5604 27.18 35.6662 27.8567 37.0629 28.18C38.4379 28.5 39.7379 28.5225 40.9129 28.25C41.3129 30.625 40.6629 33.14 39.0129 35.805C37.3596 38.4683 35.2279 40.4708 32.6179 41.8125L36.5704 47.5C38.5704 46.51 40.4704 45.255 42.2204 43.7375C43.9954 42.22 45.5704 40.475 46.9704 38.5025C48.3704 36.53 49.4204 34.3025 50.0954 31.7775C50.7704 29.2525 50.9579 26.6775 50.6354 24.0275C50.2154 20.5275 49.0854 17.7275 47.2454 15.6525C45.4071 13.5508 43.1171 12.5 40.3754 12.5C37.9629 12.5 35.9604 13.225 34.3754 14.695C32.8071 16.135 32.0237 18.1083 32.0254 20.615L32.0204 20.6075ZM9.21039 20.6075C9.21039 22.8075 9.78539 24.655 10.9354 26.15C11.7521 27.2 12.8579 27.8808 14.2529 28.1925C15.6529 28.5008 16.9362 28.5192 18.1029 28.2475C18.5029 30.5975 17.8779 33.1225 16.2229 35.7975C14.5729 38.4475 12.4429 40.4475 9.83289 41.7975L13.7754 47.5C15.7771 46.51 17.6604 45.2558 19.4254 43.7375C21.2164 42.1973 22.8071 40.4386 24.1604 38.5025C25.5504 36.5275 26.5854 34.3025 27.2604 31.7775C27.9461 29.2545 28.1304 26.6215 27.8029 24.0275C27.3879 20.5275 26.2629 17.7275 24.4279 15.6525C22.5946 13.5658 20.3087 12.5225 17.5704 12.5225C15.1537 12.5192 13.1521 13.25 11.5654 14.715C9.99706 16.155 9.21206 18.1283 9.21039 20.635V20.6075Z" fill="#EDDFBB"/>
</svg>
