<?xml version="1.0" encoding="utf-8"?><svg viewBox="0 0 40 40" xmlns="http://www.w3.org/2000/svg"
   xmlns:xlink="http://www.w3.org/1999/xlink">
   <style>
      :root>svg {
         display: none
      }

      :root>svg:target {
         display: block
      }
   </style><svg fill="none" viewBox="0 0 12 10" id="icon-arrow" xmlns="http://www.w3.org/2000/svg">
      <path
         d="M5.734.203c.27-.27.708-.27.978 0l4.149 4.148a.692.692 0 0 1 0 .978L6.712 9.478a.691.691 0 0 1-.978-.978l2.969-2.968H.69a.691.691 0 1 1 0-1.383h8.012L5.734 1.18a.691.691 0 0 1 0-.977Z"
         fill="currentColor" />
   </svg><svg fill="none" viewBox="0 0 15 15" id="icon-arrow-diagonal" xmlns="http://www.w3.org/2000/svg">
      <path d="M1.03 13.572 14 .775m0 0v13m0-13H0" stroke="#F8F0EA" stroke-width="1.55" />
   </svg><svg fill="none" viewBox="0 0 19 20" id="icon-building" xmlns="http://www.w3.org/2000/svg">
      <g clip-path="url(#ca)">
         <path d="M12.309 19h6.063V8.65L6.245 5.2V1H2v18h6.064v-6h4.245v6Z" fill="currentColor" />
      </g>
      <defs>
         <clipPath id="ca">
            <path fill="currentColor" d="M0 0h19v20H0z" />
         </clipPath>
      </defs>
   </svg><svg fill="none" viewBox="0 0 20 20" id="icon-calculator" xmlns="http://www.w3.org/2000/svg">
      <path
         d="M17.916 10.792V9.208c0-3.358 0-5.038-1.159-6.081C15.598 2.083 13.732 2.083 10 2.083c-3.732 0-5.599 0-6.758 1.044C2.083 4.17 2.083 5.85 2.083 9.208v1.584c0 3.358 0 5.038 1.16 6.081C4.4 17.917 6.266 17.917 10 17.917c3.731 0 5.598 0 6.757-1.044 1.16-1.043 1.16-2.723 1.16-6.081Z"
         stroke="currentColor" stroke-width="1.5" />
      <path
         d="M15 6.667h-3.333M13.333 5v3.333M15 14.583h-3.333m3.333-2.5h-3.333m-3.334 2.5-1.458-1.458m0 0-1.458-1.458m1.458 1.458 1.458-1.458m-1.458 1.458-1.458 1.458m2.916-7.916H5"
         stroke="currentColor" stroke-width="1.5" stroke-linecap="round" stroke-linejoin="round" />
   </svg><svg fill="none" viewBox="0 0 14 14" id="icon-chevron" xmlns="http://www.w3.org/2000/svg">
      <path
         d="M3.094 4.845a.61.61 0 0 0 0 .862l3.444 3.448a.607.607 0 0 0 .487.176.607.607 0 0 0 .434-.179l3.446-3.445a.61.61 0 1 0-.862-.862L6.997 7.891 3.955 4.845a.608.608 0 0 0-.86 0Z"
         fill="currentColor" />
   </svg><svg fill="none" viewBox="0 0 30 30" id="icon-clock" xmlns="http://www.w3.org/2000/svg">
      <path
         d="M15 25a10 10 0 1 0 0-20 10 10 0 0 0 0 20Zm0-22.5a12.5 12.5 0 1 1 0 25C8.088 27.5 2.5 21.875 2.5 15A12.5 12.5 0 0 1 15 2.5Zm.625 6.25v6.563l5.625 3.337-.938 1.538-6.562-3.938v-7.5h1.875Z"
         fill="currentColor" />
   </svg><svg fill="none" viewBox="0 0 20 20" id="icon-file" xmlns="http://www.w3.org/2000/svg">
      <path
         d="m11.104 7.03-3.191 3.128c-.304.3-.47.71-.464 1.141.01.436.19.851.5 1.156.313.31.734.487 1.17.494a1.6 1.6 0 0 0 1.155-.458l3.19-3.128a3.125 3.125 0 0 0 .926-2.282 3.333 3.333 0 0 0-.998-2.313 3.417 3.417 0 0 0-2.34-.987 3.208 3.208 0 0 0-2.308.915L5.55 7.826a4.692 4.692 0 0 0-1.389 3.422 5 5 0 0 0 1.498 3.467 5.125 5.125 0 0 0 3.509 1.482 4.808 4.808 0 0 0 3.464-1.372l3.19-3.13"
         stroke="currentColor" stroke-width="2" stroke-linecap="round" stroke-linejoin="round" />
   </svg><svg fill="none" viewBox="0 0 20 20" id="icon-glass" xmlns="http://www.w3.org/2000/svg">
      <path fill-rule="evenodd" clip-rule="evenodd"
         d="M11.827 13.005a5.833 5.833 0 1 1 1.178-1.178l4.31 4.31a.833.833 0 1 1-1.178 1.178l-4.31-4.31Zm.673-4.672a4.167 4.167 0 1 1-8.333 0 4.167 4.167 0 0 1 8.333 0Z"
         fill="currentColor" />
   </svg><svg fill="none" viewBox="0 0 20 20" id="icon-location" xmlns="http://www.w3.org/2000/svg">
      <path fill-rule="evenodd" clip-rule="evenodd"
         d="M15.834 7.5a5.807 5.807 0 0 1-1.044 3.33h.002l-4.09 6.403a.833.833 0 0 1-1.404 0l-4.07-6.377A5.833 5.833 0 1 1 15.833 7.5ZM10 10.833a3.333 3.333 0 1 0 0-6.666 3.333 3.333 0 0 0 0 6.666Z"
         fill="currentColor" />
   </svg><svg fill="none" viewBox="0 0 30 30" id="icon-location-bold" xmlns="http://www.w3.org/2000/svg">
      <path fill-rule="evenodd" clip-rule="evenodd"
         d="M15.037 2.5a10.68 10.68 0 0 1 7.5 3.113 10.497 10.497 0 0 1 3.088 7.462v.063c-.075 3.787-2.2 7.275-4.85 10a27.65 27.65 0 0 1-4.975 4.05c-.488.412-1.2.412-1.688 0a27.503 27.503 0 0 1-6.987-6.513 13.509 13.509 0 0 1-2.75-7.688C4.4 7.176 9.175 2.488 15.037 2.5Zm0 14.075c.888 0 1.738-.338 2.363-.95a3.322 3.322 0 0 0 1.014-2.375c0-1.85-1.514-3.338-3.377-3.338a3.342 3.342 0 0 0-3.362 3.338c0 1.826 1.475 3.3 3.325 3.325h.037Z"
         fill="currentColor" />
   </svg><svg fill="none" viewBox="0 0 30 30" id="icon-mail" xmlns="http://www.w3.org/2000/svg">
      <path fill-rule="evenodd" clip-rule="evenodd"
         d="M21.174 3.75a6.321 6.321 0 0 1 6.326 6.313v9.874c0 3.488-2.837 6.313-6.326 6.313H8.825c-3.489 0-6.325-2.825-6.325-6.313v-9.875A6.313 6.313 0 0 1 8.825 3.75h12.349Zm1.989 8.176.1-.1a.967.967 0 0 0-.014-1.25 1.05 1.05 0 0 0-.661-.325.95.95 0 0 0-.701.25l-5.637 4.5a1.958 1.958 0 0 1-2.5 0l-5.625-4.5a.951.951 0 0 0-1.25.088.955.955 0 0 0-.088 1.25L6.95 12l5.688 4.438c.7.55 1.549.85 2.437.85.887 0 1.75-.3 2.45-.85l5.638-4.513Z"
         fill="currentColor" />
   </svg><svg fill="none" viewBox="0 0 20 20" id="icon-max" xmlns="http://www.w3.org/2000/svg">
      <g clip-path="url(#la)">
         <path fill-rule="evenodd" clip-rule="evenodd"
            d="M10.242 6.164c-1.989-.104-3.54 1.275-3.883 3.435-.283 1.788.22 3.967.65 4.077.181.047.62-.289.94-.59a.183.183 0 0 1 .22-.023c.498.304 1.06.533 1.682.566 2.041.107 3.85-1.491 3.957-3.533.107-2.041-1.525-3.825-3.566-3.932Zm-3.33 10.368a.19.19 0 0 0-.248.029c-.862.92-3.069 1.565-3.17.31 0-.984-.221-1.813-.464-2.726-.298-1.117-.63-2.36-.63-4.168 0-4.309 3.534-7.55 7.724-7.55s7.475 3.4 7.475 7.592c0 4.193-3.39 7.508-7.435 7.508-1.435 0-2.132-.202-3.252-.995Z"
            fill="currentColor" />
      </g>
      <defs>
         <clipPath id="la">
            <path fill="currentColor" d="M0 0h20v20H0z" />
         </clipPath>
      </defs>
   </svg><svg fill="none" viewBox="0 0 30 30" id="icon-phone" xmlns="http://www.w3.org/2000/svg">
      <path fill-rule="evenodd" clip-rule="evenodd"
         d="M6.26 13.368c0-.773.01-1.546.02-2.323.004-.394.009-.789.012-1.185 0-4.256 2.665-7.36 6.345-7.36h4.726c3.68 0 6.345 3.104 6.345 7.36.031 1.705.042 3.41.042 5.128 0 1.717-.01 3.447-.042 5.152 0 4.256-2.665 7.36-6.345 7.36h-4.726c-3.68 0-6.345-3.104-6.345-7.372-.02-1.607-.042-3.251-.042-4.92l.01-1.84ZM16.6 24.55v.2c0 .842-.704 1.5-1.6 1.5-.874 0-1.6-.658-1.6-1.5v-.2c0-.82.726-1.5 1.6-1.5.896 0 1.6.68 1.6 1.5ZM8.77 10.554c-.006.505-.012 1.008-.012 1.51l-.008 1.197c0 1.084.015 2.152.03 3.197 0 2.775 1.904 4.792 4.532 4.792h3.376c2.629 0 4.532-2.017 4.532-4.784.022-1.108.03-2.233.03-3.349s-.008-2.225-.03-3.333C21.22 7.017 19.317 5 16.688 5h-3.376C10.684 5 8.78 7.017 8.78 9.784c-.002.258-.006.514-.01.77Z"
         fill="currentColor" />
   </svg><svg fill="none" viewBox="0 0 20 20" id="icon-pinterest" xmlns="http://www.w3.org/2000/svg">
      <g clip-path="url(#na)">
         <path
            d="M9.986.75A9.247 9.247 0 0 0 .736 10a9.24 9.24 0 0 0 5.875 8.611c-.083-.736-.152-1.847.028-2.653a2136.4 2136.4 0 0 1 1.083-4.597s-.277-.555-.277-1.375c0-1.292.75-2.25 1.666-2.25.792 0 1.167.597 1.167 1.306 0 .791-.5 1.986-.764 3.083-.222.917.458 1.667 1.375 1.667 1.639 0 2.903-1.736 2.903-4.236 0-2.209-1.597-3.764-3.861-3.764-2.625 0-4.18 1.972-4.18 4.014 0 .791.305 1.652.694 2.11.07.098.083.167.07.265-.07.291-.223.916-.25 1.041-.043.167-.14.209-.306.125-1.153-.541-1.875-2.222-1.875-3.583 0-2.917 2.125-5.597 6.11-5.597 3.209 0 5.695 2.291 5.695 5.333 0 3.18-2.014 5.75-4.792 5.75-.93 0-1.819-.486-2.125-1.056l-.569 2.195c-.208.805-.778 1.805-1.153 2.43a9.247 9.247 0 0 0 11.986-8.833c0-5.097-4.139-9.236-9.25-9.236Z"
            fill="currentColor" />
      </g>
      <defs>
         <clipPath id="na">
            <path fill="currentColor" d="M0 0h20v20H0z" />
         </clipPath>
      </defs>
   </svg><svg fill="none" viewBox="0 0 24 24" id="icon-play" xmlns="http://www.w3.org/2000/svg">
      <path
         d="M9.525 18.025c-.333.217-.671.23-1.013.037-.341-.191-.512-.487-.512-.887V6.825c0-.4.17-.696.512-.888.342-.191.68-.178 1.013.038l8.15 5.175c.3.2.45.484.45.85 0 .367-.15.65-.45.85l-8.15 5.175Z"
         fill="currentColor" />
   </svg><svg fill="none" viewBox="0 0 40 40" id="icon-plus" xmlns="http://www.w3.org/2000/svg">
      <path
         d="M30 21.663h-8.334v8.334a1.667 1.667 0 0 1-3.333 0v-8.334H10a1.667 1.667 0 0 1 0-3.333h8.333V9.997a1.667 1.667 0 1 1 3.333 0v8.333H30a1.667 1.667 0 0 1 0 3.333Z"
         fill="currentColor" />
   </svg><svg fill="none" viewBox="0 0 20 18" id="icon-rutube" xmlns="http://www.w3.org/2000/svg">
      <g clip-path="url(#qa)" fill="currentColor">
         <path
            d="M10.537 10.884h-7.4v-3.05h7.4c.432 0 .733.08.883.216.151.137.245.391.245.763v1.094c0 .392-.094.646-.244.783-.151.137-.452.195-.884.195v-.001Zm.508-5.924H0V18h3.138v-4.242H8.92L11.665 18h3.514l-3.026-4.262c1.116-.173 1.616-.528 2.03-1.115.413-.587.62-1.525.62-2.776v-.978c0-.743-.076-1.33-.207-1.779a2.993 2.993 0 0 0-.677-1.192 3.035 3.035 0 0 0-1.165-.724c-.451-.137-1.015-.215-1.71-.215v.001ZM17.59 4.96c1.33 0 2.41-1.111 2.41-2.48C20 1.11 18.92 0 17.59 0c-1.332 0-2.411 1.11-2.411 2.48 0 1.369 1.079 2.48 2.41 2.48Z" />
      </g>
      <defs>
         <clipPath id="qa">
            <path fill="currentColor" d="M0 0h20v18H0z" />
         </clipPath>
      </defs>
   </svg><svg fill="none" viewBox="0 0 20 20" id="icon-telegram" xmlns="http://www.w3.org/2000/svg">
      <path
         d="m18.7 3.852-2.641 12.453c-.2.879-.719 1.097-1.457.683l-4.024-2.964-1.94 1.867c-.216.214-.395.394-.81.394l.29-4.098 7.457-6.738c.324-.289-.07-.449-.504-.16l-9.22 5.805-3.968-1.242c-.863-.27-.879-.864.18-1.278l15.523-5.98c.719-.27 1.348.16 1.114 1.258Z"
         fill="currentColor" />
      <path
         d="m18.7 3.852-2.641 12.453c-.2.879-.719 1.097-1.457.683l-4.024-2.964-1.94 1.867c-.216.214-.395.394-.81.394l.29-4.098 7.457-6.738c.324-.289-.07-.449-.504-.16l-9.22 5.805-3.968-1.242c-.863-.27-.879-.864.18-1.278l15.523-5.98c.719-.27 1.348.16 1.114 1.258Z"
         fill="currentColor" />
   </svg><svg fill="none" viewBox="0 0 20 20" id="icon-tg" xmlns="http://www.w3.org/2000/svg">
      <path
         d="m18.7 3.852-2.641 12.453c-.2.879-.719 1.097-1.457.683l-4.024-2.964-1.94 1.867c-.216.214-.395.394-.81.394l.29-4.098 7.457-6.738c.324-.289-.07-.449-.504-.16l-9.22 5.805-3.968-1.242c-.863-.27-.879-.864.18-1.278l15.523-5.98c.719-.27 1.348.16 1.114 1.258Z"
         fill="currentColor" />
      <path
         d="m18.7 3.852-2.641 12.453c-.2.879-.719 1.097-1.457.683l-4.024-2.964-1.94 1.867c-.216.214-.395.394-.81.394l.29-4.098 7.457-6.738c.324-.289-.07-.449-.504-.16l-9.22 5.805-3.968-1.242c-.863-.27-.879-.864.18-1.278l15.523-5.98c.719-.27 1.348.16 1.114 1.258Z"
         fill="currentColor" />
   </svg><svg fill="none" viewBox="0 0 20 20" id="icon-vk" xmlns="http://www.w3.org/2000/svg">
      <path
         d="M18.923 5.199c.129-.434 0-.754-.618-.754H16.26c-.52 0-.76.275-.889.58 0 0-1.042 2.538-2.514 4.184-.475.476-.694.629-.955.629-.128 0-.326-.153-.326-.587V5.199c0-.521-.146-.754-.576-.754H7.784c-.326 0-.52.243-.52.47 0 .492.736.607.812 1.996v3.013c0 .66-.118.782-.378.782-.695 0-2.382-2.549-3.382-5.466-.202-.566-.4-.795-.924-.795H1.347c-.583 0-.701.275-.701.58 0 .542.694 3.233 3.232 6.788 1.691 2.428 4.073 3.743 6.24 3.743 1.302 0 1.461-.291 1.461-.795 0-2.32-.118-2.538.535-2.538.302 0 .823.153 2.038 1.323 1.39 1.389 1.619 2.01 2.396 2.01h2.045c.584 0 .879-.291.709-.868-.39-1.211-3.018-3.705-3.136-3.871-.302-.389-.215-.563 0-.91.004-.003 2.5-3.517 2.757-4.708Z"
         fill="currentColor" />
   </svg><svg fill="none" viewBox="0 0 20 20" id="icon-whatsapp" xmlns="http://www.w3.org/2000/svg">
      <path
         d="M16.129 3.793A8.607 8.607 0 0 0 9.996 1.25 8.681 8.681 0 0 0 2.48 14.258L1.25 18.75l4.598-1.207a8.646 8.646 0 0 0 4.144 1.055h.004c4.777 0 8.754-3.891 8.754-8.672 0-2.317-.984-4.492-2.621-6.133ZM9.996 17.137a7.194 7.194 0 0 1-3.672-1.004l-.261-.156-2.727.714.727-2.66-.172-.273a7.184 7.184 0 0 1-1.102-3.836c0-3.973 3.234-7.207 7.211-7.207 1.926 0 3.734.75 5.094 2.113 1.36 1.363 2.195 3.172 2.191 5.098 0 3.976-3.316 7.21-7.289 7.21Zm3.953-5.399c-.215-.11-1.281-.633-1.48-.703-.2-.074-.344-.11-.489.11-.144.218-.558.703-.687.851-.125.145-.254.164-.469.055-1.273-.637-2.11-1.137-2.949-2.578-.223-.383.223-.356.637-1.184.07-.144.035-.27-.02-.379-.055-.11-.488-1.176-.668-1.61-.176-.421-.355-.362-.488-.37-.125-.008-.27-.008-.414-.008a.803.803 0 0 0-.578.27c-.2.218-.758.742-.758 1.808s.777 2.098.883 2.242c.11.145 1.527 2.332 3.703 3.274 1.375.593 1.914.644 2.601.543.418-.063 1.282-.524 1.461-1.032.18-.507.18-.941.125-1.03-.05-.099-.195-.153-.41-.259Z"
         fill="currentColor" />
   </svg>
</svg>