<svg width="20" height="20" viewBox="0 0 20 20" fill="none" xmlns="http://www.w3.org/2000/svg">
<path d="M9.14574 14.8727C9.67199 14.5594 10.3277 14.56 10.8534 14.8742L13.6374 16.5382C14.3035 16.9366 15.1186 16.3477 14.9433 15.6028L14.2123 12.5027C14.0691 11.8958 14.2768 11.2597 14.7504 10.8542L17.1959 8.76013C17.7831 8.25776 17.4676 7.30499 16.6963 7.24436L13.4607 6.97294C12.8467 6.92143 12.3111 6.5353 12.0683 5.96896L10.8064 3.02619C10.5084 2.3246 9.49164 2.3246 9.19364 3.02619L7.93211 5.96147C7.68898 6.52717 7.15377 6.91273 6.54019 6.9642L3.30369 7.2357C2.53239 7.29633 2.21686 8.2491 2.8041 8.75147L5.24959 10.8455C5.72324 11.2511 5.93087 11.8871 5.78774 12.494L5.05665 15.5941C4.88136 16.339 5.69648 16.928 6.36261 16.5295L9.14574 14.8727Z" fill="#FFB128"/>
</svg>
